HIERARCHY
ROOT Hips
{
  OFFSET 5.72205e-005 65.662 3.42586
  CHANNELS 6 Xposition Yposition Zposition Zrotation Xrotation Yrotation
  JOINT Chest
  {
    OFFSET 0 8.7983 -4.7612
    CHANNELS 6 Xposition Yposition Zposition Zrotation Xrotation Yrotation
    JOINT Chest2
    {
      OFFSET 0 8.0291 0.4195
      CHANNELS 6 Xposition Yposition Zposition Zrotation Xrotation Yrotation
      JOINT Chest3
      {
        OFFSET 0 9.9351 -2.2114
        CHANNELS 6 Xposition Yposition Zposition Zrotation Xrotation Yrotation
        JOINT Neck
        {
          OFFSET 0 22.3885 -0.4656
          CHANNELS 6 Xposition Yposition Zposition Zrotation Xrotation Yrotation
          JOINT Head
          {
            OFFSET -0.0001 12.643 3.4389
            CHANNELS 6 Xposition Yposition Zposition Zrotation Xrotation Yrotation
            End Site
            {
              OFFSET 0.0001 17.6655 0.5274
            }
          }
        }
        JOINT LeftCollar
        {
          OFFSET 2.2603 21.606 7.4023
          CHANNELS 6 Xposition Yposition Zposition Zrotation Xrotation Yrotation
          JOINT LeftShoulder
          {
            OFFSET 13.5163 -1.1332 -5.0146
            CHANNELS 6 Xposition Yposition Zposition Zrotation Xrotation Yrotation
            JOINT LeftElbow
            {
              OFFSET -0.0995 -28.05 -0.2431
              CHANNELS 6 Xposition Yposition Zposition Zrotation Xrotation Yrotation
              JOINT LeftWrist
              {
                OFFSET 0.0679 -23.3996 -0.1402
                CHANNELS 6 Xposition Yposition Zposition Zrotation Xrotation Yrotation
                JOINT LeftFinger1
                {
                  OFFSET 0.7932 -9.069 2.5189
                  CHANNELS 6 Xposition Yposition Zposition Zrotation Xrotation Yrotation
                  JOINT LeftFinger11
                  {
                    OFFSET -0.8272 -3.3923 0.5977
                    CHANNELS 6 Xposition Yposition Zposition Zrotation Xrotation Yrotation
                    JOINT LeftFinger12
                    {
                      OFFSET -0.5649 -2.3158 0.4082
                      CHANNELS 6 Xposition Yposition Zposition Zrotation Xrotation Yrotation
                      End Site
                      {
                        OFFSET -0.4919 -1.6479 0.2673
                      }
                    }
                  }
                }
                JOINT LeftFinger2
                {
                  OFFSET 0.9159 -9.2044 0.2193
                  CHANNELS 6 Xposition Yposition Zposition Zrotation Xrotation Yrotation
                  JOINT LeftFinger21
                  {
                    OFFSET 0.0117 -4.1944 -0.0248
                    CHANNELS 6 Xposition Yposition Zposition Zrotation Xrotation Yrotation
                    JOINT LeftFinger22
                    {
                      OFFSET 0.0071 -2.3249 -0.0142
                      CHANNELS 6 Xposition Yposition Zposition Zrotation Xrotation Yrotation
                      End Site
                      {
                        OFFSET -0.1475 -2.0882 0.0028
                      }
                    }
                  }
                }
                JOINT LeftFinger3
                {
                  OFFSET 0.6113 -8.7231 -2.0637
                  CHANNELS 6 Xposition Yposition Zposition Zrotation Xrotation Yrotation
                  JOINT LeftFinger31
                  {
                    OFFSET -0.1927 -3.8059 -0.2383
                    CHANNELS 6 Xposition Yposition Zposition Zrotation Xrotation Yrotation
                    JOINT LeftFinger32
                    {
                      OFFSET -0.1091 -2.1688 -0.1362
                      CHANNELS 6 Xposition Yposition Zposition Zrotation Xrotation Yrotation
                      End Site
                      {
                        OFFSET -0.2358 -1.9176 -0.0906
                      }
                    }
                  }
                }
                JOINT LeftFinger4
                {
                  OFFSET -0.6151 -8.0947 -3.5641
                  CHANNELS 6 Xposition Yposition Zposition Zrotation Xrotation Yrotation
                  JOINT LeftFinger41
                  {
                    OFFSET -0.4882 -2.341 -0.6462
                    CHANNELS 6 Xposition Yposition Zposition Zrotation Xrotation Yrotation
                    JOINT LeftFinger42
                    {
                      OFFSET -0.3575 -1.7167 -0.4742
                      CHANNELS 6 Xposition Yposition Zposition Zrotation Xrotation Yrotation
                      End Site
                      {
                        OFFSET -0.4187 -1.5237 -0.3496
                      }
                    }
                  }
                }
                JOINT LeftFinger0
                {
                  OFFSET -1.42 -1.8761 1.4223
                  CHANNELS 6 Xposition Yposition Zposition Zrotation Xrotation Yrotation
                  JOINT LeftFinger01
                  {
                    OFFSET -1.1471 -3.4929 2.6334
                    CHANNELS 6 Xposition Yposition Zposition Zrotation Xrotation Yrotation
                    JOINT LeftFinger02
                    {
                      OFFSET -0.823 -2.3 1.6571
                      CHANNELS 6 Xposition Yposition Zposition Zrotation Xrotation Yrotation
                      End Site
                      {
                        OFFSET -0.5822 -1.6914 1.1582
                      }
                    }
                  }
                }
              }
            }
          }
        }
        JOINT RightCollar
        {
          OFFSET -2.2603 21.606 7.4023
          CHANNELS 6 Xposition Yposition Zposition Zrotation Xrotation Yrotation
          JOINT RightShoulder
          {
            OFFSET -13.5187 -1.1334 -5.0155
            CHANNELS 6 Xposition Yposition Zposition Zrotation Xrotation Yrotation
            JOINT RightElbow
            {
              OFFSET 0.0994 -28.0499 -0.2431
              CHANNELS 6 Xposition Yposition Zposition Zrotation Xrotation Yrotation
              JOINT RightWrist
              {
                OFFSET -0.0679 -23.3996 -0.1402
                CHANNELS 6 Xposition Yposition Zposition Zrotation Xrotation Yrotation
                JOINT RightFinger1
                {
                  OFFSET -0.7932 -9.0691 2.5189
                  CHANNELS 6 Xposition Yposition Zposition Zrotation Xrotation Yrotation
                  JOINT RightFinger11
                  {
                    OFFSET 0.8272 -3.3923 0.5977
                    CHANNELS 6 Xposition Yposition Zposition Zrotation Xrotation Yrotation
                    JOINT RightFinger12
                    {
                      OFFSET 0.565 -2.3158 0.4082
                      CHANNELS 6 Xposition Yposition Zposition Zrotation Xrotation Yrotation
                      End Site
                      {
                        OFFSET 0.4919 -1.6479 0.2673
                      }
                    }
                  }
                }
                JOINT RightFinger2
                {
                  OFFSET -0.916 -9.2044 0.2193
                  CHANNELS 6 Xposition Yposition Zposition Zrotation Xrotation Yrotation
                  JOINT RightFinger21
                  {
                    OFFSET -0.0117 -4.1944 -0.0248
                    CHANNELS 6 Xposition Yposition Zposition Zrotation Xrotation Yrotation
                    JOINT RightFinger22
                    {
                      OFFSET -0.0071 -2.3249 -0.0142
                      CHANNELS 6 Xposition Yposition Zposition Zrotation Xrotation Yrotation
                      End Site
                      {
                        OFFSET 0.1475 -2.0882 0.0028
                      }
                    }
                  }
                }
                JOINT RightFinger3
                {
                  OFFSET -0.6113 -8.7231 -2.0637
                  CHANNELS 6 Xposition Yposition Zposition Zrotation Xrotation Yrotation
                  JOINT RightFinger31
                  {
                    OFFSET 0.1927 -3.8059 -0.2383
                    CHANNELS 6 Xposition Yposition Zposition Zrotation Xrotation Yrotation
                    JOINT RightFinger32
                    {
                      OFFSET 0.1091 -2.1688 -0.1362
                      CHANNELS 6 Xposition Yposition Zposition Zrotation Xrotation Yrotation
                      End Site
                      {
                        OFFSET 0.2358 -1.9176 -0.0906
                      }
                    }
                  }
                }
                JOINT RightFinger4
                {
                  OFFSET 0.6151 -8.0947 -3.564
                  CHANNELS 6 Xposition Yposition Zposition Zrotation Xrotation Yrotation
                  JOINT RightFinger41
                  {
                    OFFSET 0.4882 -2.341 -0.6462
                    CHANNELS 6 Xposition Yposition Zposition Zrotation Xrotation Yrotation
                    JOINT RightFinger42
                    {
                      OFFSET 0.3574 -1.7166 -0.4742
                      CHANNELS 6 Xposition Yposition Zposition Zrotation Xrotation Yrotation
                      End Site
                      {
                        OFFSET 0.4187 -1.5237 -0.3496
                      }
                    }
                  }
                }
                JOINT RightFinger0
                {
                  OFFSET 1.4199 -1.8761 1.4221
                  CHANNELS 6 Xposition Yposition Zposition Zrotation Xrotation Yrotation
                  JOINT RightFinger01
                  {
                    OFFSET 1.1472 -3.4929 2.6336
                    CHANNELS 6 Xposition Yposition Zposition Zrotation Xrotation Yrotation
                    JOINT RightFinger02
                    {
                      OFFSET 0.8229 -2.3 1.6571
                      CHANNELS 6 Xposition Yposition Zposition Zrotation Xrotation Yrotation
                      End Site
                      {
                        OFFSET 0.5822 -1.6914 1.1582
                      }
                    }
                  }
                }
              }
            }
          }
        }
      }
    }
  }
  JOINT RightHip
  {
    OFFSET -9.412 3.9771 -0.7758
    CHANNELS 6 Xposition Yposition Zposition Zrotation Xrotation Yrotation
    JOINT RightKnee
    {
      OFFSET -0.7531 -40.938 0
      CHANNELS 6 Xposition Yposition Zposition Zrotation Xrotation Yrotation
      JOINT RightAnkle
      {
        OFFSET 0 -40.1986 0
        CHANNELS 6 Xposition Yposition Zposition Zrotation Xrotation Yrotation
        JOINT RightToe
        {
          OFFSET 0 -4.4182 9.239
          CHANNELS 6 Xposition Yposition Zposition Zrotation Xrotation Yrotation
          End Site
          {
            OFFSET 0 0 6.1981
          }
        }
      }
    }
  }
  JOINT LeftHip
  {
    OFFSET 9.4119 3.9773 -0.7758
    CHANNELS 6 Xposition Yposition Zposition Zrotation Xrotation Yrotation
    JOINT LeftKnee
    {
      OFFSET 0.7532 -40.9383 0
      CHANNELS 6 Xposition Yposition Zposition Zrotation Xrotation Yrotation
      JOINT LeftAnkle
      {
        OFFSET 0 -40.1986 0
        CHANNELS 6 Xposition Yposition Zposition Zrotation Xrotation Yrotation
        JOINT LeftToe
        {
          OFFSET 0 -4.4182 9.239
          CHANNELS 6 Xposition Yposition Zposition Zrotation Xrotation Yrotation
          End Site
          {
            OFFSET 0 0 6.1981
          }
        }
      }
    }
  }
}
MOTION
Frames:	4
Frame Time:	0.0333333
5.72205e-005 65.662 3.42586 0 0 -0 0 8.7983 -4.7612 0 0 -0 0 8.0291 0.4195 0 0 -0 0 9.9351 -2.2114 0 0 -0 0 22.3885 -0.4656 0 0 -0 -0.0001 12.643 3.4389 0 0 -0 2.2603 21.606 7.4023 0 0 -12.5014 13.5163 -1.1332 -5.0146 88.1196 14.2451 10.6914 -0.0995 -28.05 -0.2431 -0.00160068 -0.00239207 0.000740045 0.0679 -23.3996 -0.1402 -8.4365e-005 7.00714e-005 -9.52055e-007 0.7932 -9.069 2.5189 9.93923e-017 -1.98785e-016 -1.59028e-015 -0.8272 -3.3923 0.5977 9.93923e-017 -5.96354e-016 -1.59028e-015 -0.5649 -2.3158 0.4082 -9.93923e-017 -5.96354e-016 -1.59028e-015 0.9159 -9.2044 0.2193 9.93923e-017 -1.98785e-016 -1.59028e-015 0.0117 -4.1944 -0.0248 -0.0128176 0.00232552 8.52707e-005 0.0071 -2.3249 -0.0142 9.93923e-017 5.96354e-016 -0 0.6113 -8.7231 -2.0637 9.93923e-017 -1.98785e-016 -1.59028e-015 -0.1927 -3.8059 -0.2383 -0.0160551 0.00299681 0.000857156 -0.1091 -2.1688 -0.1362 -2.48481e-016 0 3.18055e-015 -0.6151 -8.0947 -3.5641 9.93923e-017 -1.98785e-016 -1.59028e-015 -0.4882 -2.341 -0.6462 -0.0125865 0.0031206 0.00282719 -0.3575 -1.7167 -0.4742 0 1.98785e-016 -0 -1.42 -1.8761 1.4223 9.93923e-017 -1.98785e-016 -1.59028e-015 -1.1471 -3.4929 2.6334 9.93923e-017 -5.96354e-016 -1.59028e-015 -0.823 -2.3 1.6571 -9.93923e-017 -5.96354e-016 -1.59028e-015 -2.2603 21.606 7.4023 -0.865644 0.16582 7.03859 -13.5187 -1.1334 -5.0155 -88.0329 10.2057 -10.5567 0.0994 -28.0499 -0.2431 0.0015593 -0.00248883 -0.000788628 -0.0679 -23.3996 -0.1402 7.87605e-005 4.10553e-005 1.24965e-005 -0.7932 -9.0691 2.5189 -3.97569e-016 -7.95139e-016 3.18055e-015 0.8272 -3.3923 0.5977 -1.98785e-016 -3.97569e-016 3.18055e-015 0.565 -2.3158 0.4082 -1.98785e-016 0 3.18055e-015 -0.916 -9.2044 0.2193 -3.97569e-016 -7.95139e-016 3.18055e-015 -0.0117 -4.1944 -0.0248 0.0129473 0.00231697 -8.70038e-005 -0.0071 -2.3249 -0.0142 9.93923e-017 -7.95139e-016 1.59028e-015 -0.6113 -8.7231 -2.0637 -3.97569e-016 -7.95139e-016 3.18055e-015 0.1927 -3.8059 -0.2383 0.0163314 0.00303369 -0.000872333 0.1091 -2.1688 -0.1362 3.97569e-016 7.95139e-016 -3.18055e-015 0.6151 -8.0947 -3.564 -3.97569e-016 -7.95139e-016 3.18055e-015 0.4882 -2.341 -0.6462 0.0145763 0.00367772 -0.00326275 0.3574 -1.7166 -0.4742 9.93923e-017 -3.97569e-016 -0 1.4199 -1.8761 1.4221 -3.97569e-016 -7.95139e-016 3.18055e-015 1.1472 -3.4929 2.6336 -1.98785e-016 -3.97569e-016 3.18055e-015 0.8229 -2.3 1.6571 -1.98785e-016 0 3.18055e-015 -9.412 3.9771 -0.7758 3.42482 1.32465 -0.0626183 -0.7531 -40.938 0 0.000117508 0.717283 0.000978199 0 -40.1986 0 -3.4257 -2.04197 -0.0604716 8.88178e-016 -4.4182 9.239 6.47761e-025 0 -0 9.4119 3.9773 -0.7758 -3.42483 1.34017 0.0627307 0.7532 -40.9383 -2.22045e-016 -0.000193936 0.682302 -0.0013703 -8.88179e-016 -40.1986 0 3.42574 -2.02253 0.0595886 -8.88178e-016 -4.4182 9.239 -8.45714e-024 0 -7.40531e-025 
-44.2042 22.3181 -4.2212 -66.6667 2.13443e-007 2.59276 0 8.7983 -4.7612 0.0232436 0.775312 -0.191093 0 8.0291 0.4195 0.0491076 1.55054 -0.382554 7.10543e-015 9.9351 -2.2114 0.0490834 1.55054 -0.382553 0 22.3885 -0.4656 3.7601e-005 39.461 -2.55914e-005 -0.0001 12.643 3.4389 -1.68776e-005 -60.949 -7.0952e-006 2.2603 21.606 7.4023 -12.3764 -2.21494 -7.16866 13.5163 -1.1332 -5.0146 86.1716 -40.0754 7.08377 -0.0995 -28.05 -0.2431 -9.49676 -25.1722 8.12436 0.0679 -23.3996 -0.1402 -15.0224 -21.2442 28.4619 0.7932 -9.069 2.5189 -7.43508e-006 -1.17208e-005 -7.94965e-006 -0.8272 -3.3923 0.5977 2.75391e-006 -8.97553e-007 2.6825e-006 -0.5649 -2.3158 0.4082 -2.20594e-006 2.97403e-006 2.09543e-006 0.9159 -9.2044 0.2193 -7.43508e-006 -1.17208e-005 -7.94965e-006 0.0117 -4.1944 -0.0248 -0.0128152 0.00232092 8.55503e-005 0.0071 -2.3249 -0.0142 3.84152e-006 8.28737e-006 -4.40627e-006 0.6113 -8.7231 -2.0637 -7.43508e-006 -1.17208e-005 -7.94965e-006 -0.1927 -3.8059 -0.2383 -0.0160419 0.00299646 0.000858486 -0.1091 -2.1688 -0.1362 1.10409e-006 -3.54504e-006 -4.5821e-006 -0.6151 -8.0947 -3.5641 -7.43508e-006 -1.17208e-005 -7.94965e-006 -0.4882 -2.341 -0.6462 -0.012613 0.00312724 0.0028332 -0.3575 -1.7167 -0.4742 -3.08389e-007 -6.48341e-007 -7.40249e-006 -1.42 -1.8761 1.4223 -7.43508e-006 -1.17208e-005 -7.94965e-006 -1.1471 -3.4929 2.6334 2.75391e-006 -8.97553e-007 2.6825e-006 -0.823 -2.3 1.6571 -2.20594e-006 2.97403e-006 2.09543e-006 -2.2603 21.606 7.4023 11.5287 -1.95046 1.69653 -13.5187 -1.1334 -5.0155 -86.4258 -44.1691 -7.67267 0.0994 -28.0499 -0.2431 9.67044 -25.0843 -8.26927 -0.0679 -23.3996 -0.1402 15.7427 -20.841 -28.2418 -0.7932 -9.0691 2.5189 6.91042e-006 1.56367e-006 5.79309e-006 0.8272 -3.3923 0.5977 -6.91042e-006 -1.56366e-006 -5.7931e-006 0.565 -2.3158 0.4082 6.91042e-006 1.56366e-006 5.79309e-006 -0.916 -9.2044 0.2193 6.91042e-006 1.56367e-006 5.79309e-006 -0.0117 -4.1944 -0.0248 0.0129889 0.00232314 -9.51871e-005 -0.0071 -2.3249 -0.0142 6.36111e-015 7.95139e-016 -1.98785e-016 -0.6113 -8.7231 -2.0637 6.91042e-006 1.56367e-006 5.79309e-006 0.1927 -3.8059 -0.2383 0.0163306 0.00303688 -0.000872998 0.1091 -2.1688 -0.1362 -3.18055e-015 0 1.98785e-016 0.6151 -8.0947 -3.564 6.91042e-006 1.56367e-006 5.79309e-006 0.4882 -2.341 -0.6462 0.0146249 0.00371164 -0.00328372 0.3574 -1.7166 -0.4742 4.77083e-015 -1.59028e-015 1.98785e-016 1.4199 -1.8761 1.4221 6.91042e-006 1.56367e-006 5.79309e-006 1.1472 -3.4929 2.6336 -6.91042e-006 -1.56366e-006 -5.7931e-006 0.8229 -2.3 1.6571 6.91042e-006 1.56366e-006 5.79309e-006 -9.412 3.9771 -0.7758 -57.4802 -33.4956 -47.0455 -0.7531 -40.938 -3.55271e-015 64.2753 17.4558 -63.7782 7.10543e-015 -40.1986 1.42109e-014 -7.38159 27.6271 25.0519 0 -4.4182 9.239 -1.51351e-006 5.40283e-007 4.37377e-007 9.4119 3.9773 -0.7758 6.62197 -56.4159 -2.19022 0.7532 -40.9383 7.10543e-015 -9.50188 44.1651 23.5145 3.55271e-015 -40.1986 1.06581e-014 14.0796 23.3805 -22.9608 -3.55271e-015 -4.4182 9.239 7.35503e-015 -3.18055e-015 3.97569e-016 
-60.3448 4.48235 -7.54593 -96.6666 6.4033e-007 3.75951 8.88178e-016 8.7983 -4.7612 0.0463011 1.03969 -0.275594 0 8.0291 0.4195 0.0975358 2.07916 -0.552161 0 9.9351 -2.2114 0.0975191 2.07917 -0.552164 -4.44089e-016 22.3885 -0.4656 5.93005e-005 56.2167 -5.37244e-005 -0.0001 12.643 3.4389 0.000104518 -87.3474 0.00010571 2.2603 21.606 7.4023 -17.7998 -3.068 -4.1665 13.5163 -1.1332 -5.0146 84.5314 -64.7121 4.81689 -0.0995001 -28.05 -0.2431 -15.0863 -37.3401 10.3004 0.0679 -23.3996 -0.1402 -21.7545 -30.1923 41.0293 0.7932 -9.069 2.5189 -6.36111e-015 1.49089e-015 4.96962e-016 -0.8272 -3.3923 0.5977 -3.18055e-015 3.77691e-015 -2.38542e-015 -0.5649 -2.3158 0.4082 4.13804e-033 2.38542e-015 -9.93923e-017 0.9159 -9.2044 0.2193 -6.36111e-015 1.49089e-015 4.96962e-016 0.0117 -4.1944 -0.0248 -0.0128043 0.00230644 9.31149e-005 0.0071 -2.3249 -0.0142 3.18055e-015 -8.42322e-008 -4.17448e-015 0.6113 -8.7231 -2.0637 -6.36111e-015 1.49089e-015 4.96962e-016 -0.1927 -3.8059 -0.2383 -0.0160224 0.00299346 0.000866256 -0.1091 -2.1688 -0.1362 -3.18055e-015 2.28602e-015 2.08724e-015 -0.6151 -8.0947 -3.5641 -6.36111e-015 1.49089e-015 4.96962e-016 -0.4882 -2.341 -0.6462 -0.0125931 0.00310614 0.00283371 -0.3575 -1.7167 -0.4742 -1.59028e-014 3.77691e-015 -2.28602e-015 -1.42 -1.8761 1.4223 -6.36111e-015 1.49089e-015 4.96962e-016 -1.1471 -3.4929 2.6334 -3.18055e-015 3.77691e-015 -2.38542e-015 -0.823 -2.3 1.6571 4.13804e-033 2.38542e-015 -9.93923e-017 -2.2603 21.606 7.4023 16.9505 -2.84356 -1.43333 -13.5187 -1.1334 -5.0155 -85.5548 -68.7762 -6.34339 0.0994 -28.0499 -0.2431 15.2324 -37.0076 -10.5329 -0.0679 -23.3996 -0.1402 23.3194 -29.99 -40.32 -0.793201 -9.0691 2.5189 -5.6703e-006 2.77995e-006 -2.16265e-007 0.827201 -3.3923 0.5977 2.79814e-006 2.1065e-006 1.38814e-006 0.565 -2.3158 0.4082 6.27101e-006 -6.11436e-006 1.18285e-005 -0.916001 -9.2044 0.2193 -5.6703e-006 2.77995e-006 -2.16265e-007 -0.0117 -4.1944 -0.0248 0.0129679 0.00232122 -7.84824e-005 -0.0071 -2.3249 -0.0142 -3.36216e-033 -5.96354e-016 -3.23025e-016 -0.6113 -8.7231 -2.0637 -5.6703e-006 2.77995e-006 -2.16265e-007 0.1927 -3.8059 -0.2383 0.016351 0.00303383 -0.000867845 0.1091 -2.1688 -0.1362 3.18055e-015 -9.93923e-017 3.97569e-016 0.6151 -8.0947 -3.564 -5.6703e-006 2.77995e-006 -2.16265e-007 0.4882 -2.341 -0.6462 0.0146398 0.00367619 -0.00325777 0.3574 -1.7166 -0.4742 3.18055e-015 7.45443e-017 4.96962e-017 1.4199 -1.8761 1.4221 -5.6703e-006 2.77995e-006 -2.16265e-007 1.1472 -3.4929 2.6336 2.79814e-006 2.1065e-006 1.38814e-006 0.822901 -2.3 1.6571 6.27101e-006 -6.11436e-006 1.18285e-005 -9.412 3.9771 -0.7758 -101.339 -30.8438 -72.4163 -0.7531 -40.938 0 99.1753 5.75327 -92.4866 -7.10543e-015 -40.1986 -7.10543e-015 -21.7946 34.7149 48.2892 0 -4.4182 9.239 -4.39899e-006 8.07724e-007 -1.22298e-006 9.4119 3.9773 -0.7758 4.0279 -83.711 -10.1409 0.7532 -40.9383 7.10543e-015 -34.7302 60.2121 51.0102 1.77636e-015 -40.1986 -7.10543e-015 27.5765 29.8883 -36.9465 -1.77636e-015 -4.4182 9.23901 -1.23945e-005 1.09602e-008 -4.88319e-006 
-57.319 8.28858 -6.18087 -90 0 3.50023 -8.88178e-016 8.7983 -4.7612 0.0415453 0.793404 -0.256592 -8.88178e-016 8.0291 0.4195 0.0866497 1.58662 -0.513846 0 9.9351 -2.2114 0.086643 1.58661 -0.513842 0 22.3885 -0.4656 -8.59427e-005 50.2649 8.05464e-005 -0.0001 12.643 3.4389 1.40352e-005 -79.1931 2.19716e-005 2.2603 21.606 7.4023 -16.5862 -2.59629 -3.50932 13.5163 -1.1332 -5.0146 85.0637 -59.6723 5.49762 -0.0995 -28.05 -0.2431 -14.7809 -36.7171 9.23747 0.0679 -23.3996 -0.1402 -19.5262 -26.7375 39.146 0.7932 -9.069 2.5189 7.60372e-006 -1.11586e-005 6.57461e-006 -0.8272 -3.3923 0.5977 3.18055e-015 0 -1.98785e-016 -0.5649 -2.3158 0.4082 3.18055e-015 0 -0 0.9159 -9.2044 0.2193 7.60372e-006 -1.11586e-005 6.57461e-006 0.0117 -4.1944 -0.0248 -0.0128453 0.00234871 7.9811e-005 0.0071 -2.3249 -0.0142 3.18055e-015 1.98785e-016 3.97569e-016 0.6113 -8.7231 -2.0637 7.60372e-006 -1.11586e-005 6.57461e-006 -0.1927 -3.8059 -0.2383 -0.0160165 0.0029793 0.000860679 -0.1091 -2.1688 -0.1362 6.36111e-015 8.54774e-015 -9.54166e-015 -0.6151 -8.0947 -3.5641 7.60372e-006 -1.11586e-005 6.57461e-006 -0.4882 -2.341 -0.6462 -0.0125635 0.00312582 0.00281446 -0.3575 -1.7167 -0.4742 3.18055e-015 0 1.98785e-016 -1.42 -1.8761 1.4223 7.60372e-006 -1.11586e-005 6.57461e-006 -1.1471 -3.4929 2.6334 3.18055e-015 0 -1.98785e-016 -0.823 -2.3 1.6571 3.18055e-015 0 -0 -2.2603 21.606 7.4023 15.7066 -2.54839 -2.33866 -13.5187 -1.1334 -5.0155 -85.8816 -63.6118 -6.7751 0.0994 -28.0499 -0.2431 14.6708 -35.9624 -9.6363 -0.0679 -23.3996 -0.1402 21.7077 -27.1369 -38.2184 -0.7932 -9.0691 2.5189 -1.44245e-030 -9.34288e-015 -8.84592e-015 0.8272 -3.3923 0.5977 9.54166e-015 -9.34288e-015 -8.54774e-015 0.565 -2.3158 0.4082 9.54166e-015 -9.59136e-015 -8.74653e-015 -0.916 -9.2044 0.2193 -1.44245e-030 -9.34288e-015 -8.84592e-015 -0.0117 -4.1944 -0.0248 0.0129167 0.00230324 -7.28209e-005 -0.0071 -2.3249 -0.0142 -1.37935e-033 -1.98785e-016 -3.97569e-016 -0.6113 -8.7231 -2.0637 -1.44245e-030 -9.34288e-015 -8.84592e-015 0.1927 -3.8059 -0.2383 0.0162849 0.00302935 -0.000878828 0.1091 -2.1688 -0.1362 1.27222e-014 9.93923e-017 -0 0.6151 -8.0947 -3.564 -1.44245e-030 -9.34288e-015 -8.84592e-015 0.4882 -2.341 -0.6462 0.0145742 0.00367576 -0.00326947 0.3574 -1.7166 -0.4742 -2.47713e-006 2.42707e-006 -4.17666e-008 1.4199 -1.8761 1.4221 -1.44245e-030 -9.34288e-015 -8.84592e-015 1.1472 -3.4929 2.6336 9.54166e-015 -9.34288e-015 -8.54774e-015 0.8229 -2.3 1.6571 9.54166e-015 -9.59136e-015 -8.74653e-015 -9.412 3.9771 -0.7758 -92.3595 -31.8445 -67.8688 -0.7531 -40.938 7.10543e-015 91.6594 9.32174 -90.671 1.42109e-014 -40.1986 0 -20.2854 32.7365 46.8463 0 -4.4182 9.239 2.48726e-006 -9.79445e-008 6.35069e-008 9.4119 3.9773 -0.7758 7.13765 -78.3019 -5.66379 0.7532 -40.9383 0 -27.2556 59.1806 43.0065 1.77636e-015 -40.1986 -1.06581e-014 23.5616 28.0122 -32.9694 1.77636e-015 -4.4182 9.239 -1.32612e-005 2.58607e-007 -3.01986e-006 
